<?xml version="1.0" encoding="UTF-8"?>
<!DOCTYPE svg PUBLIC "-//W3C//DTD SVG 1.1//EN" "http://www.w3.org/Graphics/SVG/1.1/DTD/svg11.dtd">
<svg xmlns="http://www.w3.org/2000/svg" version="1.1" width="386px" height="52px" style="shape-rendering:geometricPrecision; text-rendering:geometricPrecision; image-rendering:optimizeQuality; fill-rule:evenodd; clip-rule:evenodd" xmlns:xlink="http://www.w3.org/1999/xlink">
<g><path style="opacity:1" fill="#fbfbfb" d="M -0.5,-0.5 C 128.167,-0.5 256.833,-0.5 385.5,-0.5C 385.5,16.8333 385.5,34.1667 385.5,51.5C 256.833,51.5 128.167,51.5 -0.5,51.5C -0.5,49.1667 -0.5,46.8333 -0.5,44.5C 1.23033,45.0256 2.56366,46.0256 3.5,47.5C 9.463,48.8298 15.7963,49.4964 22.5,49.5C 29.009,49.4996 35.3424,49.1662 41.5,48.5C 42.1667,48.5 42.8333,48.5 43.5,48.5C 48.5111,48.6659 53.5111,48.4993 58.5,48C 60.6238,46.8783 62.4571,45.3783 64,43.5C 64.6667,30.8333 64.6667,18.1667 64,5.5C 61.1787,1.33705 57.3454,-0.162946 52.5,1C 45.1673,3.99968 38.1673,7.49968 31.5,11.5C 30.8333,11.5 30.1667,11.5 29.5,11.5C 29.0269,10.0937 28.0269,9.42702 26.5,9.5C 25.4613,7.46888 23.7946,6.13554 21.5,5.5C 19.6051,3.75867 17.2718,2.75867 14.5,2.5C 9.0432,-0.647463 4.0432,0.0192038 -0.5,4.5C -0.5,2.83333 -0.5,1.16667 -0.5,-0.5 Z"/></g>
<g><path style="opacity:1" fill="#a5a1ff" d="M 14.5,2.5 C 8.68471,1.45601 3.68471,2.78934 -0.5,6.5C -0.5,5.83333 -0.5,5.16667 -0.5,4.5C 4.0432,0.0192038 9.0432,-0.647463 14.5,2.5 Z"/></g>
<g><path style="opacity:1" fill="#615efe" d="M 14.5,2.5 C 16.3949,4.24133 18.7282,5.24133 21.5,5.5C 22.5794,7.54297 24.246,8.8763 26.5,9.5C 28.0269,9.42702 29.0269,10.0937 29.5,11.5C 29.6567,12.8734 29.49,14.2068 29,15.5C 24.7424,22.3481 20.7424,29.3481 17,36.5C 15.7464,41.3159 16.9131,45.3159 20.5,48.5C 14.7414,48.7857 9.07475,48.4524 3.5,47.5C 2.56366,46.0256 1.23033,45.0256 -0.5,44.5C -0.5,31.8333 -0.5,19.1667 -0.5,6.5C 3.68471,2.78934 8.68471,1.45601 14.5,2.5 Z"/></g>
<g><path style="opacity:1" fill="#46d9eb" d="M 43.5,48.5 C 46.5946,47.325 47.9279,44.9916 47.5,41.5C 47.1255,36.0112 46.1255,30.6779 44.5,25.5C 43.5,25.5 42.5,25.5 41.5,25.5C 38.6452,20.4434 35.3118,15.7767 31.5,11.5C 38.1673,7.49968 45.1673,3.99968 52.5,1C 57.3454,-0.162946 61.1787,1.33705 64,5.5C 64.6667,18.1667 64.6667,30.8333 64,43.5C 62.4571,45.3783 60.6238,46.8783 58.5,48C 53.5111,48.4993 48.5111,48.6659 43.5,48.5 Z"/></g>
<g><path style="opacity:1" fill="#b3b0ff" d="M 14.5,2.5 C 17.2718,2.75867 19.6051,3.75867 21.5,5.5C 18.7282,5.24133 16.3949,4.24133 14.5,2.5 Z"/></g>
<g><path style="opacity:1" fill="#101010" d="M 218.5,6.5 C 224.704,6.3137 226.037,8.8137 222.5,14C 219.402,15.0673 217.402,14.0673 216.5,11C 216.519,9.16698 217.185,7.66698 218.5,6.5 Z"/></g>
<g><path style="opacity:1" fill="#0d0d0d" d="M 183.5,6.5 C 186.685,6.01964 189.519,6.68631 192,8.5C 191.951,13.7016 190.784,18.7016 188.5,23.5C 189,23.8333 189.5,24.1667 190,24.5C 191.898,21.2534 194.398,18.42 197.5,16C 202.84,15.0112 205.34,17.1778 205,22.5C 202.205,25.113 199.371,25.113 196.5,22.5C 196.167,23 195.833,23.5 195.5,24C 196.697,25.5199 198.197,26.6866 200,27.5C 200.651,29.235 200.485,30.9017 199.5,32.5C 203.47,33.1769 203.47,35.0102 199.5,38C 190.705,39.7039 187.039,36.2039 188.5,27.5C 185.937,30.5047 185.271,33.838 186.5,37.5C 181.833,38.8333 177.167,38.8333 172.5,37.5C 176.18,29.2978 179.18,20.7978 181.5,12C 180.054,9.39273 180.721,7.55939 183.5,6.5 Z"/></g>
<g><path style="opacity:1" fill="#9e9aff" d="M 21.5,5.5 C 23.7946,6.13554 25.4613,7.46888 26.5,9.5C 24.246,8.8763 22.5794,7.54297 21.5,5.5 Z"/></g>
<g><path style="opacity:1" fill="#111111" d="M 280.5,8.5 C 285.804,7.97604 288.138,10.1427 287.5,15C 285.744,15.2022 284.078,15.7022 282.5,16.5C 285.776,24.1196 283.442,29.2863 275.5,32C 272.118,32.1764 268.785,32.6764 265.5,33.5C 270.242,34.114 274.909,34.9474 279.5,36C 282.265,38.9663 281.932,41.633 278.5,44C 270.074,48.5613 261.741,48.5613 253.5,44C 252.542,40.097 254.209,37.9303 258.5,37.5C 257.907,34.4041 258.907,32.0708 261.5,30.5C 257.518,23.3671 259.518,18.5338 267.5,16C 271.225,15.2401 274.892,15.4068 278.5,16.5C 279.26,13.8133 279.927,11.1466 280.5,8.5 Z"/></g>
<g><path style="opacity:1" fill="#0b0b0b" d="M 303.5,9.5 C 306.518,9.33537 309.518,9.50204 312.5,10C 317.038,11.6643 318.538,14.8309 317,19.5C 314.048,25.6126 312.882,31.9459 313.5,38.5C 308.833,38.5 304.167,38.5 299.5,38.5C 301.014,35.7109 302.014,32.7109 302.5,29.5C 295.969,28.5792 293.635,31.2458 295.5,37.5C 291.683,38.9145 288.016,38.7478 284.5,37C 286.609,35.8589 288.442,34.3589 290,32.5C 292.94,26.9541 295.606,21.2874 298,15.5C 299.36,12.9774 301.193,10.9774 303.5,9.5 Z"/></g>
<g><path style="opacity:1" fill="#0c0c0c" d="M 85.5,9.5 C 92.5079,9.33371 99.5079,9.50038 106.5,10C 112.535,11.9986 114.035,15.8319 111,21.5C 109.352,22.717 107.519,23.5503 105.5,24C 110.68,28.0785 110.68,32.4118 105.5,37C 96.2243,38.7504 86.891,38.9171 77.5,37.5C 79.6511,35.2277 81.1511,32.561 82,29.5C 84.2594,23.035 85.4261,16.3683 85.5,9.5 Z"/></g>
<g><path style="opacity:1" fill="#e9e9e9" d="M 96.5,13.5 C 101.914,13.9208 102.914,16.4208 99.5,21C 98.2068,21.49 96.8734,21.6567 95.5,21.5C 95.5751,18.7938 95.9084,16.1272 96.5,13.5 Z"/></g>
<g><path style="opacity:1" fill="#1b51eb" d="M 29.5,11.5 C 30.1667,11.5 30.8333,11.5 31.5,11.5C 35.3118,15.7767 38.6452,20.4434 41.5,25.5C 42.6401,27.7802 43.8068,30.1136 45,32.5C 45.3148,35.3715 45.8148,38.2048 46.5,41C 45.7231,44.1655 44.0564,46.6655 41.5,48.5C 34.5,48.5 27.5,48.5 20.5,48.5C 16.9131,45.3159 15.7464,41.3159 17,36.5C 20.7424,29.3481 24.7424,22.3481 29,15.5C 29.49,14.2068 29.6567,12.8734 29.5,11.5 Z"/></g>
<g><path style="opacity:1" fill="#f2f2f2" d="M 303.5,15.5 C 304.5,15.5 305.5,15.5 306.5,15.5C 306.041,18.8774 305.374,22.2107 304.5,25.5C 302.396,25.7989 300.396,25.4656 298.5,24.5C 299.925,21.3116 301.592,18.3116 303.5,15.5 Z"/></g>
<g><path style="opacity:1" fill="#090909" d="M 125.5,15.5 C 139.432,14.232 143.932,19.8987 139,32.5C 133.636,38.0612 127.136,39.8945 119.5,38C 117.714,37.2155 116.214,36.0488 115,34.5C 113.281,25.2701 116.781,18.9367 125.5,15.5 Z"/></g>
<g><path style="opacity:1" fill="#0b0b0b" d="M 156.5,15.5 C 168.01,13.6264 172.844,18.2931 171,29.5C 166.091,37.6953 158.924,40.5286 149.5,38C 145.061,35.0239 143.561,30.8572 145,25.5C 147.818,20.8388 151.651,17.5055 156.5,15.5 Z"/></g>
<g><path style="opacity:1" fill="#090909" d="M 213.5,15.5 C 216.685,15.0196 219.519,15.6863 222,17.5C 221.407,23.0502 220.24,28.5502 218.5,34C 218.585,35.1074 218.919,36.1074 219.5,37C 217.2,38.1091 214.7,38.6091 212,38.5C 209.833,38.1667 207.667,37.8333 205.5,37.5C 207.875,32.1896 209.875,26.6896 211.5,21C 210.054,18.3927 210.721,16.5594 213.5,15.5 Z"/></g>
<g><path style="opacity:1" fill="#0c0c0c" d="M 231.5,15.5 C 235.539,14.6597 238.539,15.993 240.5,19.5C 249.158,12.712 253.325,14.712 253,25.5C 252.265,27.8713 251.432,30.2046 250.5,32.5C 251.274,33.7112 252.107,33.7112 253,32.5C 252.922,36.7517 250.588,38.7517 246,38.5C 242.222,38.8668 240.056,37.2001 239.5,33.5C 240.302,30.4262 241.302,27.4262 242.5,24.5C 242.167,23.8333 241.833,23.1667 241.5,22.5C 239.803,23.3636 238.637,24.6969 238,26.5C 236.263,30.4706 235.763,34.4706 236.5,38.5C 231.786,38.8266 227.12,38.4933 222.5,37.5C 225.301,32.2839 227.634,26.7839 229.5,21C 228.978,20.0497 228.311,19.2164 227.5,18.5C 228.624,17.1408 229.958,16.1408 231.5,15.5 Z"/></g>
<g><path style="opacity:1" fill="#0c0c0c" d="M 325.5,15.5 C 329.287,14.8144 332.454,15.8144 335,18.5C 341.943,13.5542 346.443,15.2209 348.5,23.5C 347.78,35.5935 341.614,40.2602 330,37.5C 328.314,40.0883 328.147,42.7549 329.5,45.5C 324.5,46.8333 319.5,46.8333 314.5,45.5C 315.242,44.7132 316.075,44.0465 317,43.5C 319,36.8333 321,30.1667 323,23.5C 323.651,21.765 323.485,20.0983 322.5,18.5C 323.34,17.265 324.34,16.265 325.5,15.5 Z"/></g>
<g><path style="opacity:1" fill="#0b0b0b" d="M 357.5,15.5 C 361.287,14.8144 364.454,15.8144 367,18.5C 373.943,13.5542 378.443,15.2209 380.5,23.5C 379.18,35.0212 373.013,39.6879 362,37.5C 359.905,39.929 359.405,42.5956 360.5,45.5C 355.833,46.8333 351.167,46.8333 346.5,45.5C 347.522,44.646 348.355,43.646 349,42.5C 351.089,35.3103 353.256,28.1437 355.5,21C 354.054,18.3927 354.721,16.5594 357.5,15.5 Z"/></g>
<g><path style="opacity:1" fill="#ececec" d="M 271.5,19.5 C 272.5,19.5 273.5,19.5 274.5,19.5C 274.698,23.2572 273.365,26.2572 270.5,28.5C 269.197,25.3166 269.531,22.3166 271.5,19.5 Z"/></g>
<g><path style="opacity:1" fill="#dedede" d="M 129.5,19.5 C 130.586,19.62 131.253,20.2867 131.5,21.5C 130.556,26.7108 128.556,31.3775 125.5,35.5C 124.156,29.527 125.489,24.1937 129.5,19.5 Z"/></g>
<g><path style="opacity:1" fill="#e4e4e4" d="M 159.5,19.5 C 160.693,19.9704 161.36,20.9704 161.5,22.5C 160.533,27.246 158.699,31.5793 156,35.5C 155.056,34.737 154.556,33.737 154.5,32.5C 155.585,27.9084 157.251,23.575 159.5,19.5 Z"/></g>
<g><path style="opacity:1" fill="#e5e5e5" d="M 335.5,21.5 C 337.344,22.2039 337.844,23.5372 337,25.5C 336.178,27.7885 335.511,30.1218 335,32.5C 333.759,34.4206 332.259,34.754 330.5,33.5C 331.57,29.1836 333.236,25.1836 335.5,21.5 Z"/></g>
<g><path style="opacity:1" fill="#e1e1e1" d="M 366.5,21.5 C 367.5,21.5 368.5,21.5 369.5,21.5C 368.649,25.5649 367.483,29.5649 366,33.5C 364.989,34.3366 363.822,34.67 362.5,34.5C 363.435,30.0307 364.768,25.6973 366.5,21.5 Z"/></g>
<g><path style="opacity:1" fill="#ededed" d="M 93.5,26.5 C 95.1667,26.5 96.8333,26.5 98.5,26.5C 98.9133,31.7131 96.58,34.3798 91.5,34.5C 91.5597,31.6592 92.2264,28.9925 93.5,26.5 Z"/></g>
<g><path style="opacity:1" fill="#f9f9f9" d="M 262.5,39.5 C 265.247,39.1866 267.914,39.52 270.5,40.5C 269.652,41.9911 268.319,42.6578 266.5,42.5C 264.018,42.8896 262.685,41.8896 262.5,39.5 Z"/></g>
<g><path style="opacity:1" fill="#36b1eb" d="M 41.5,25.5 C 42.5,25.5 43.5,25.5 44.5,25.5C 46.1255,30.6779 47.1255,36.0112 47.5,41.5C 47.9279,44.9916 46.5946,47.325 43.5,48.5C 42.8333,48.5 42.1667,48.5 41.5,48.5C 44.0564,46.6655 45.7231,44.1655 46.5,41C 45.8148,38.2048 45.3148,35.3715 45,32.5C 43.8068,30.1136 42.6401,27.7802 41.5,25.5 Z"/></g>
<g><path style="opacity:1" fill="#c9d3fb" d="M 3.5,47.5 C 9.07475,48.4524 14.7414,48.7857 20.5,48.5C 27.5,48.5 34.5,48.5 41.5,48.5C 35.3424,49.1662 29.009,49.4996 22.5,49.5C 15.7963,49.4964 9.463,48.8298 3.5,47.5 Z"/></g>
</svg>
